<svg id="图层_1" data-name="图层 1" xmlns="http://www.w3.org/2000/svg" viewBox="0 0 159 49"><title>web</title><path class="cls-1" d="M117,27.53,115,21l-2,6.49-.55,1.87H108.9l4.24-11.29H117l4.24,11.29h-3.65L117,27.53Zm-49.93,0-2-6.49-2,6.49-.55,1.87H59l4.24-11.29H67L71.26,29.4H67.61l-.56-1.87Zm55.3-4.85h5a5.85,5.85,0,0,0,.93-.16.86.86,0,0,0,.56-.35,1,1,0,0,0,.22-.66,1.05,1.05,0,0,0-.34-.84,2.18,2.18,0,0,0-1.31-.29h-5V18.1h5.81a8.23,8.23,0,0,1,2.47.28,2.62,2.62,0,0,1,1.38,1,3.11,3.11,0,0,1,.53,1.83,3.24,3.24,0,0,1-.4,1.62A3.16,3.16,0,0,1,131,24a4.12,4.12,0,0,1-1.22.45,3.81,3.81,0,0,1,.91.41,3.87,3.87,0,0,1,.56.6,4.9,4.9,0,0,1,.49.7l1.68,3.27h-3.94l-1.86-3.45a2.68,2.68,0,0,0-.63-.87,1.53,1.53,0,0,0-.86-.26h-.31v4.58h-3.5V22.68ZM47,18.1h3.49v3.95H54.3V18.1h3.5V29.39H54.3V24.82H50.49v4.57H47V18.1Zm87.61,0h5.19a6.13,6.13,0,0,1,2.47.42,4,4,0,0,1,1.56,1.19,4.87,4.87,0,0,1,.89,1.81,8.22,8.22,0,0,1,.28,2.19,7.66,7.66,0,0,1-.41,2.8,4.57,4.57,0,0,1-1.15,1.67,3.69,3.69,0,0,1-1.57.9,7.82,7.82,0,0,1-2.07.31h-5.19V18.1Zm3.49,2.56v6.17H139a3.57,3.57,0,0,0,1.55-.25,1.66,1.66,0,0,0,.73-.84,5.47,5.47,0,0,0,.26-2,3.8,3.8,0,0,0-.59-2.46,2.47,2.47,0,0,0-1.94-.66ZM102.58,25.3V23H108v4.81a10.75,10.75,0,0,1-2.74,1.44,9.39,9.39,0,0,1-2.82.38,7,7,0,0,1-3.28-.68,4.72,4.72,0,0,1-2-2,6.78,6.78,0,0,1-.7-3.11,6.47,6.47,0,0,1,.77-3.22,4.88,4.88,0,0,1,2.23-2.07,7.15,7.15,0,0,1,3.09-.55,8.49,8.49,0,0,1,2.79.34,3.48,3.48,0,0,1,1.54,1.05,4.55,4.55,0,0,1,.92,1.81l-3.36.6a1.8,1.8,0,0,0-.7-1,2.21,2.21,0,0,0-1.27-.34,2.25,2.25,0,0,0-1.83.8,3.85,3.85,0,0,0-.68,2.52,3.92,3.92,0,0,0,.69,2.61,2.4,2.4,0,0,0,1.92.79,3.8,3.8,0,0,0,1.12-.17,5.64,5.64,0,0,0,1.21-.58V25.3ZM83.79,18.1h3.48v3.95h3.81V18.1h3.51V29.39H91.08V24.82H87.27v4.57H83.79V18.1Zm-12,7.56,3.31-.21a2.6,2.6,0,0,0,.44,1.23,1.83,1.83,0,0,0,1.54.68A1.67,1.67,0,0,0,78.22,27a1,1,0,0,0,.41-.81,1,1,0,0,0-.39-.78,4.47,4.47,0,0,0-1.78-.66,7.62,7.62,0,0,1-3.28-1.37,2.77,2.77,0,0,1-1-2.18,3,3,0,0,1,.5-1.64,3.36,3.36,0,0,1,1.52-1.22A7.17,7.17,0,0,1,77,17.91a5.68,5.68,0,0,1,3.29.8,3.5,3.5,0,0,1,1.36,2.56l-3.29.2A1.54,1.54,0,0,0,76.65,20a1.42,1.42,0,0,0-.92.26.81.81,0,0,0-.31.63.62.62,0,0,0,.26.48,2.8,2.8,0,0,0,1.17.42,15,15,0,0,1,3.27,1,3.47,3.47,0,0,1,1.44,1.26A3.14,3.14,0,0,1,82,25.72a3.58,3.58,0,0,1-.6,2,3.81,3.81,0,0,1-1.67,1.39,6.91,6.91,0,0,1-2.72.47q-2.88,0-4-1.11a4.33,4.33,0,0,1-1.25-2.81Z"/><path class="cls-1" d="M26.86,17.41a9.3,9.3,0,0,1,2.44-.54L28,35.62,26.86,38l-1.09-2.38L24.42,16.87a9.3,9.3,0,0,1,2.44.54Zm0-.68A7.12,7.12,0,0,0,24,16.27a15.19,15.19,0,0,0-2.44.28.82.82,0,0,1,.08.35.7.7,0,1,1-1.4,0,.68.68,0,0,1,.41-.63A14.44,14.44,0,0,1,25.85,15L26,12a1.32,1.32,0,1,1,2.16-1,1.3,1.3,0,0,1-.48,1l.18,3a14.5,14.5,0,0,1,5.18,1.28.69.69,0,0,1,.4.63.7.7,0,1,1-1.39,0,.81.81,0,0,1,.07-.35,15.2,15.2,0,0,0-2.43-.28,7.14,7.14,0,0,0-2.85.46Zm10.89,8.13L35.38,33a15.47,15.47,0,0,0-3.33.63,12.93,12.93,0,0,0-3.25,2.06l.86-8.28a12.29,12.29,0,0,1,3.55-1.68,16,16,0,0,1,4.54-.82ZM41,13.6l-2.71,9.7a30.48,30.48,0,0,0-4.47.61,31.09,31.09,0,0,0-4,1.52l.65-5.93a24.35,24.35,0,0,0,5.08-1.39C38,17.11,41,13.6,41,13.6ZM16,24.86a15.86,15.86,0,0,1,4.53.82,12.29,12.29,0,0,1,3.55,1.68l.86,8.28a12.8,12.8,0,0,0-3.24-2.06A15.47,15.47,0,0,0,18.35,33L16,24.86ZM12.68,13.6s3,3.51,5.47,4.51a24.52,24.52,0,0,0,5.09,1.39l.65,5.93a31.09,31.09,0,0,0-4-1.52,30.48,30.48,0,0,0-4.47-.61l-2.71-9.7Z"/></svg>